<?xml version="1.0" encoding="utf-8"?>
<svg viewBox="-1.8250000000000002 6.356 490.819 232.345" xmlns="http://www.w3.org/2000/svg">
  <path style="stroke: rgb(51, 192, 255); fill: rgb(255, 255, 255); fill-opacity: 0; stroke-width: 10px;" d="M 386.868 206.823 L 424.298 203.998 L 437.716 178.575 L 427.829 162.331 L 420.06 145.382 L 439.128 158.094 L 440.541 141.851 L 423.591 127.021 L 431.36 113.602 L 414.411 95.241 L 433.478 83.941 L 422.885 61.342 L 393.93 43.687 L 364.269 55.693 L 296.473 37.331 L 280.23 43.687 L 273.874 30.975 L 256.219 37.331 L 247.038 26.738 L 209.608 42.981 L 189.128 32.387 L 142.518 34.506 L 104.382 31.681 L 77.546 52.162 L 42.942 78.292 L 39.411 118.546 L 52.122 136.908 L 46.473 160.213 L 47.179 172.924 L 77.546 173.63 L 86.727 196.935 L 114.976 211.766 L 144.637 190.58 L 165.117 204.704 L 244.213 213.179 L 295.06 209.648 L 328.253 190.58 L 342.377 211.766 L 366.388 189.167 L 386.868 206.823 Z"/>
</svg>