<?xml version="1.0" encoding="utf-8"?>
<svg viewBox="-1.8250000000000002 6.356 490.819 232.345" xmlns="http://www.w3.org/2000/svg">
  <rect x="71.383" y="52.078" width="48.295" height="9.233" style="stroke: rgb(0, 0, 0); fill: rgb(1, 51, 153);"/>
  <rect x="140.383" y="52.078" width="48.295" height="9.233" style="fill: rgb(216, 216, 216); stroke: rgb(0, 0, 0);"/>
  <rect x="140.383" y="52.078" width="48.295" height="9.233" style="stroke: rgb(0, 0, 0); fill: rgb(1, 51, 153);"/>
  <rect x="209.383" y="52.078" width="48.295" height="9.233" style="fill: rgb(216, 216, 216); stroke: rgb(0, 0, 0);"/>
  <rect x="209.383" y="52.078" width="48.295" height="9.233" style="stroke: rgb(0, 0, 0); fill: rgb(1, 51, 153);"/>
  <rect x="278.383" y="52.078" width="48.295" height="9.233" style="fill: rgb(216, 216, 216); stroke: rgb(0, 0, 0);"/>
  <rect x="278.383" y="52.078" width="48.295" height="9.233" style="stroke: rgb(0, 0, 0); fill: rgb(1, 51, 153);"/>
  <rect x="347.383" y="52.078" width="48.295" height="9.233" style="stroke: rgb(0, 0, 0); fill: rgb(1, 51, 153);"/>
  <rect x="71.383" y="183.078" width="48.295" height="9.233" style="stroke: rgb(0, 0, 0); fill: rgb(1, 51, 153);"/>
  <rect x="140.383" y="183.078" width="48.295" height="9.233" style="fill: rgb(216, 216, 216); stroke: rgb(0, 0, 0);"/>
  <rect x="140.383" y="183.078" width="48.295" height="9.233" style="stroke: rgb(0, 0, 0); fill: rgb(1, 51, 153);"/>
  <rect x="209.383" y="183.078" width="48.295" height="9.233" style="fill: rgb(216, 216, 216); stroke: rgb(0, 0, 0);"/>
  <rect x="209.383" y="183.078" width="48.295" height="9.233" style="stroke: rgb(0, 0, 0); fill: rgb(1, 51, 153);"/>
  <rect x="278.383" y="183.078" width="48.295" height="9.233" style="fill: rgb(216, 216, 216); stroke: rgb(0, 0, 0);"/>
  <rect x="278.383" y="183.078" width="48.295" height="9.233" style="stroke: rgb(0, 0, 0); fill: rgb(1, 51, 153);"/>
  <rect x="347.383" y="183.078" width="48.295" height="9.233" style="stroke: rgb(0, 0, 0); fill: rgb(1, 51, 153);"/>
  <rect x="83.452" y="108.665" width="48.295" height="9.233" style="stroke: rgb(0, 0, 0); transform-origin: 107.6px 113.282px; fill: rgb(1, 51, 153);" transform="matrix(0, -1, 1, 0, -45.665662, -20.385487)"/>
  <rect x="83.452" y="108.665" width="48.295" height="9.233" style="stroke: rgb(0, 0, 0); transform-origin: 107.6px 113.282px; fill: rgb(1, 51, 153);" transform="matrix(0, -1, 1, 0, -45.665646, 40.614483)"/>
  <rect x="83.452" y="108.665" width="48.295" height="9.233" style="stroke: rgb(0, 0, 0); transform-origin: 107.6px 113.282px; fill: rgb(1, 51, 153);" transform="matrix(0, -1, 1, 0, 304.019536, -20.389157)"/>
  <rect x="83.452" y="108.665" width="48.295" height="9.233" style="stroke: rgb(0, 0, 0); transform-origin: 107.6px 113.282px; fill: rgb(1, 51, 153);" transform="matrix(0, -1, 1, 0, 304.022877, 40.614033)"/>
</svg>