<svg width="32" height="32" viewBox="0 0 32 32" fill="none" xmlns="http://www.w3.org/2000/svg">
<g clip-path="url(#clip0_293_3749)">
<path d="M15.9715 0C20.4655 0 24.2565 1.5425 27.3425 4.6285C30.4465 7.7335 32 11.524 32 16C32 20.4955 30.4755 24.238 27.4275 27.228C24.1895 30.4095 20.371 32 15.9715 32C11.647 32 7.895 30.428 4.7145 27.285C1.572 24.142 0 20.381 0 16C0 11.6195 1.572 7.829 4.7145 4.629C7.8005 1.5425 11.552 0 15.9715 0ZM16.0285 2.886C12.3905 2.886 9.3145 4.1625 6.8 6.7145C4.19 9.3815 2.8855 12.477 2.8855 16.0005C2.8855 19.5435 4.1805 22.6105 6.7705 25.1995C9.361 27.7905 12.4465 29.085 16.0275 29.085C19.589 29.085 22.6945 27.7815 25.342 25.171C27.8565 22.752 29.1135 19.695 29.1135 15.9995C29.1135 12.3615 27.837 9.267 25.2855 6.714C22.7335 4.162 19.6475 2.886 16.0285 2.886ZM20.3145 12.0285V18.571H18.4865V26.342H13.5145V18.5715H11.6865V12.0285C11.6865 11.7425 11.7865 11.5 11.986 11.3C12.1865 11.1005 12.4295 11 12.7145 11H19.2865C19.553 11 19.7915 11.1 20.0005 11.3C20.209 11.5 20.3145 11.743 20.3145 12.0285ZM13.771 7.9145C13.771 6.4105 14.5135 5.6575 16 5.6575C17.4865 5.6575 18.2285 6.4095 18.2285 7.9145C18.2285 9.4 17.4855 10.143 16 10.143C14.5145 10.143 13.771 9.4 13.771 7.9145Z" fill="white"/>
</g>
<defs>
<clipPath id="clip0_293_3749">
<rect width="32" height="32" fill="white"/>
</clipPath>
</defs>
</svg>
