<svg width="291" height="81" viewBox="0 0 291 81" fill="none" xmlns="http://www.w3.org/2000/svg">
<g clip-path="url(#clip0_1_828)">
<path d="M0 57.6931H17.2443C21.8044 57.6931 25.7674 56.7139 28.5763 54.232C31.3852 51.7524 33.1065 47.7437 33.1111 41.5183C33.1088 34.8326 31.5021 30.7723 28.8273 28.3673C26.1524 25.96 22.3224 25.1519 17.752 25.153L0 25.1519V32.1797H15.0359C17.3131 32.1682 18.8705 32.9775 19.7507 34.5433C20.6331 36.0965 20.8979 38.3075 20.9013 41.1854C20.8979 43.9669 20.6561 46.1526 19.7942 47.7081C18.9324 49.2716 17.3841 50.1097 15.0818 50.0959H11.6551V38.5773H0V57.6931Z" fill="white"/>
<path d="M35.6428 57.6931H47.298V45.8898H61.8205V38.5773H47.298V32.1797H61.8205V25.1519H35.6428V57.6931Z" fill="white"/>
<path d="M69.8471 28.6853C66.4022 31.414 64.227 35.4708 64.2224 40.9478C64.227 46.7932 66.3219 51.09 69.7176 53.961C73.1156 56.8286 77.8453 58.2659 83.125 58.2659C88.0702 58.2636 91.9781 57.7654 96.0901 56.5439V41.5275H86.185V50.2726L85.9661 50.3576C85.1329 50.6767 84.0946 50.663 83.2167 50.6675C80.6634 50.6744 78.8435 49.6045 77.7261 47.9469C76.6076 46.2904 76.1572 44.0851 76.1549 41.7559C76.1526 38.661 77.2024 36.2365 79.0624 34.6145C80.9201 32.9924 83.5502 32.1796 86.6709 32.1796C89.8603 32.1796 92.3747 32.8983 94.1625 33.843V25.7465C91.2172 25.0256 88.9744 24.5836 83.125 24.5813H83.1228C78.0286 24.5813 73.2921 25.96 69.8471 28.6853Z" fill="white"/>
<path d="M113.861 36.0632H114.809C118.339 36.1424 120.152 34.4583 120.244 31.0145C120.218 29.2041 119.763 27.9264 118.881 27.1826C117.984 26.4731 116.869 26.123 115.54 26.1345H113.861V36.0632ZM112.725 25.1128H115.591C117.648 25.1358 119.135 25.6891 120.051 26.7716C120.95 27.861 121.39 29.2971 121.38 31.0776C121.359 33.2174 120.732 34.7568 119.501 35.6935C118.288 36.6222 116.704 37.0849 114.749 37.0849H112.725V25.1128Z" fill="white"/>
<path d="M129.294 32.1015C129.294 31.2968 129.13 30.5954 128.806 29.9939C128.466 29.3866 127.904 29.072 127.125 29.0502C126.361 29.072 125.76 29.3935 125.314 30.0099C124.86 30.6344 124.633 31.3301 124.633 32.1015H129.294ZM129.8 36.8127C129.008 37.1227 128.188 37.2834 127.347 37.2937C125.964 37.2662 124.971 36.8254 124.372 35.9701C123.778 35.1333 123.485 34.0462 123.496 32.7111C123.508 31.3484 123.839 30.2453 124.492 29.4015C125.124 28.5646 125.981 28.1399 127.061 28.1284C128.242 28.1514 129.106 28.5819 129.652 29.4187C130.17 30.2407 130.429 31.2566 130.429 32.4677V33.021H124.633C124.633 33.9738 124.871 34.7567 125.347 35.3732C125.811 36.0298 126.505 36.3616 127.423 36.3731C127.834 36.3731 128.266 36.2973 128.721 36.1458C129.175 36.0229 129.536 35.8806 129.8 35.7176V36.8127Z" fill="white"/>
<path d="M139.286 35.0255C139.275 35.689 139.297 36.3755 139.357 37.0849H138.346V35.5271H138.312C138.237 35.7166 138.131 35.9094 137.997 36.1046C137.866 36.3124 137.697 36.5075 137.486 36.6912C137.276 36.8634 137.016 37.0011 136.703 37.101C136.394 37.2296 136.02 37.2939 135.577 37.2939C134.552 37.2835 133.813 36.9621 133.361 36.3307C132.906 35.712 132.685 34.9084 132.697 33.9269V28.3386H133.733V33.656C133.733 34.494 133.892 35.1483 134.212 35.6178C134.525 36.1218 135.036 36.3732 135.745 36.3732C136.22 36.3732 136.622 36.2699 136.951 36.0632C137.287 35.8669 137.542 35.6167 137.715 35.3079C137.913 34.9899 138.052 34.6467 138.129 34.277C138.209 33.9131 138.249 33.5481 138.249 33.1784V28.3386H139.286V35.0255Z" fill="white"/>
<path d="M145.86 29.258H143.937V34.9312C143.937 35.3318 144.024 35.6705 144.204 35.946C144.367 36.2318 144.653 36.373 145.066 36.373C145.444 36.373 145.766 36.303 146.03 36.1641L146.095 37.0538C145.972 37.0974 145.799 37.1479 145.578 37.2019C145.345 37.2627 145.092 37.2937 144.817 37.2937C144.364 37.2937 144.007 37.2133 143.742 37.0515C143.488 36.8885 143.298 36.6772 143.167 36.4144C143.056 36.1411 142.981 35.8335 142.95 35.4925C142.917 35.1459 142.901 34.7716 142.901 34.3698V29.258H141.243V28.3385H142.901V26.2274L143.937 25.8508V28.3385H145.86V29.258Z" fill="white"/>
<path d="M147.278 35.8186C147.922 36.1779 148.653 36.3616 149.479 36.3731C150.003 36.3731 150.444 36.2319 150.806 35.946C151.163 35.682 151.346 35.3055 151.358 34.813C151.346 34.293 151.14 33.8854 150.742 33.5881C150.341 33.3034 149.871 33.0463 149.33 32.8167C149.078 32.6939 148.834 32.563 148.604 32.4218C148.371 32.2829 148.15 32.1291 147.939 31.9626C147.75 31.7766 147.594 31.5643 147.468 31.3232C147.351 31.0947 147.293 30.8273 147.293 30.5185C147.304 29.646 147.588 29.0296 148.15 28.6657C148.693 28.3075 149.324 28.1284 150.042 28.1284C150.285 28.1284 150.601 28.1514 150.99 28.1961C151.372 28.2616 151.752 28.3706 152.13 28.5199L152.034 29.4601C151.422 29.1983 150.796 29.0606 150.151 29.0502C149.611 29.0502 149.181 29.1513 148.861 29.3521C148.695 29.4578 148.565 29.6035 148.473 29.7872C148.374 29.9674 148.325 30.2074 148.325 30.5093C148.325 30.6872 148.389 30.8594 148.514 31.0213C148.633 31.1705 148.792 31.3083 148.991 31.4311C149.193 31.5482 149.418 31.6687 149.672 31.7916C149.927 31.9098 150.175 32.0349 150.417 32.1692C150.97 32.4115 151.449 32.7317 151.861 33.1335C152.271 33.5365 152.481 34.0921 152.492 34.8038C152.492 35.2618 152.403 35.6441 152.226 35.9529C152.038 36.2709 151.801 36.5269 151.515 36.7232C150.895 37.1032 150.238 37.2937 149.542 37.2937C148.73 37.2937 147.941 37.1548 147.181 36.8793L147.278 35.8186Z" fill="white"/>
<path d="M160.094 29.4956C159.493 29.2086 158.889 29.0606 158.278 29.0502C157.262 29.0606 156.485 29.3981 155.944 30.057C155.378 30.7354 155.093 31.6194 155.093 32.7111C155.093 33.7305 155.373 34.5845 155.928 35.2733C156.47 35.9965 157.215 36.3616 158.166 36.3731C158.82 36.3731 159.455 36.2411 160.078 35.9782L160.174 36.9872C159.49 37.2019 158.767 37.3052 158.006 37.2937C156.646 37.2662 155.632 36.8036 154.97 35.9047C154.294 35.0208 153.958 33.9566 153.958 32.7111C153.969 31.3255 154.354 30.2223 155.115 29.4015C155.872 28.5646 156.877 28.1399 158.135 28.1284C158.654 28.1284 159.084 28.1674 159.431 28.2455C159.608 28.2788 159.762 28.3144 159.892 28.3523C160.015 28.397 160.111 28.4361 160.174 28.4694L160.094 29.4956Z" fill="white"/>
<path d="M162.196 24.2163H163.232V29.8057H163.263C163.496 29.3167 163.838 28.9115 164.293 28.5877C164.744 28.2927 165.28 28.14 165.895 28.1286C167.024 28.14 167.792 28.4844 168.203 29.1606C168.602 29.8459 168.797 30.7425 168.785 31.8479V37.0849H167.749V31.8594C167.749 31.4737 167.729 31.1075 167.684 30.7608C167.637 30.4314 167.541 30.1398 167.4 29.8884C167.135 29.3408 166.58 29.0607 165.739 29.0504C164.83 29.0722 164.18 29.4338 163.791 30.1317C163.406 30.8309 163.22 31.5862 163.232 32.3967V37.0849H162.196V24.2163Z" fill="white"/>
<path d="M176.881 32.1015C176.881 31.2968 176.72 30.5954 176.395 29.9939C176.053 29.3866 175.493 29.072 174.715 29.0502C173.952 29.072 173.346 29.3935 172.904 30.0099C172.449 30.6344 172.221 31.3301 172.221 32.1015H176.881ZM177.39 36.8127C176.594 37.1227 175.777 37.2834 174.934 37.2937C173.55 37.2662 172.561 36.8254 171.961 35.9701C171.366 35.1333 171.075 34.0462 171.087 32.7111C171.097 31.3484 171.428 30.2453 172.082 29.4015C172.714 28.5646 173.569 28.1399 174.65 28.1284C175.831 28.1514 176.695 28.5819 177.24 29.4187C177.759 30.2407 178.018 31.2566 178.018 32.4677V33.021H172.221C172.221 33.9738 172.461 34.7567 172.935 35.3732C173.4 36.0298 174.093 36.3616 175.012 36.3731C175.424 36.3731 175.856 36.2973 176.31 36.1458C176.765 36.0229 177.125 35.8806 177.39 35.7176V36.8127Z" fill="white"/>
<path d="M112.673 45.7026H118.176V46.7232H113.811V51.0062H117.975V52.0256H113.811V57.6736H112.673V45.7026Z" fill="white"/>
<path d="M120.795 53.3009C120.795 54.3421 121.039 55.2031 121.525 55.8792C121.99 56.591 122.684 56.9514 123.606 56.9629C124.527 56.9514 125.229 56.591 125.717 55.8792C126.183 55.2031 126.415 54.3421 126.415 53.3009C126.415 52.254 126.183 51.3827 125.717 50.6882C125.229 50.0005 124.527 49.6504 123.606 49.6389C122.684 49.6504 121.99 50.0005 121.525 50.6882C121.039 51.3827 120.795 52.254 120.795 53.3009ZM119.658 53.3009C119.658 52.0542 119.98 50.9912 120.622 50.1096C121.258 49.2038 122.252 48.7401 123.602 48.7183C124.971 48.7401 125.979 49.2038 126.621 50.1096C127.241 50.9912 127.552 52.0542 127.552 53.3009C127.552 54.5235 127.241 55.5819 126.621 56.4762C125.979 57.3865 124.971 57.8549 123.602 57.8847C122.252 57.8549 121.258 57.3865 120.622 56.4762C119.98 55.5819 119.658 54.5235 119.658 53.3009Z" fill="white"/>
<path d="M129.837 50.8787C129.837 50.0694 129.816 49.4197 129.773 48.9272H130.809V50.6021H130.84C131.04 50.0889 131.321 49.6504 131.685 49.2876C132.04 48.9192 132.484 48.7286 133.012 48.7183C133.287 48.7286 133.531 48.763 133.742 48.8181V49.9408C133.509 49.8731 133.256 49.8398 132.981 49.8398C132.568 49.8513 132.23 49.9546 131.967 50.1509C131.702 50.3564 131.485 50.6377 131.319 50.9889C131.161 51.3356 131.051 51.7075 130.986 52.1036C130.91 52.5295 130.872 52.9428 130.872 53.3457V57.6735H129.837V50.8787Z" fill="white"/>
<path d="M134.892 56.4084C135.534 56.7678 136.266 56.9514 137.093 56.9629C137.617 56.9629 138.057 56.8194 138.42 56.5347C138.775 56.2718 138.959 55.8953 138.97 55.4017C138.959 54.8817 138.753 54.4741 138.355 54.178C137.953 53.8933 137.484 53.635 136.945 53.4065C136.692 53.2837 136.448 53.1505 136.217 53.0116C135.985 52.8727 135.762 52.7189 135.553 52.5501C135.365 52.3665 135.208 52.153 135.083 51.913C134.963 51.6846 134.905 51.416 134.905 51.1083C134.916 50.2359 135.201 49.6183 135.762 49.2544C136.307 48.8973 136.938 48.7183 137.657 48.7183C137.898 48.7183 138.214 48.7401 138.603 48.7848C138.986 48.8514 139.364 48.9605 139.742 49.1086L139.646 50.0499C139.035 49.787 138.408 49.6504 137.763 49.6389C137.225 49.6389 136.795 49.7388 136.474 49.9408C136.309 50.0476 136.179 50.1922 136.088 50.3771C135.989 50.5561 135.94 50.7961 135.94 51.098C135.94 51.2771 136.002 51.447 136.128 51.6111C136.246 51.7615 136.405 51.8981 136.605 52.0209C136.806 52.138 137.032 52.2586 137.285 52.3825C137.54 52.4985 137.788 52.6236 138.03 52.7591C138.583 52.999 139.062 53.3216 139.474 53.7234C139.883 54.1263 140.094 54.6819 140.105 55.3936C140.105 55.8505 140.015 56.234 139.839 56.5416C139.651 56.8596 139.414 57.1179 139.127 57.3119C138.507 57.693 137.851 57.8847 137.155 57.8847C136.342 57.8847 135.555 57.7447 134.796 57.4692L134.892 56.4084Z" fill="white"/>
<path d="M147.705 50.0843C147.107 49.7985 146.502 49.6504 145.891 49.6389C144.876 49.6504 144.099 49.9856 143.556 50.6468C142.99 51.3241 142.706 52.2092 142.706 53.3009C142.706 54.3192 142.986 55.1732 143.54 55.862C144.082 56.5841 144.829 56.9514 145.78 56.9629C146.433 56.9629 147.068 56.8309 147.69 56.568L147.786 57.5771C147.102 57.7917 146.379 57.8951 145.618 57.8847C144.259 57.8549 143.246 57.3911 142.583 56.4922C141.907 55.6106 141.572 54.5453 141.572 53.3009C141.583 51.9153 141.967 50.8133 142.729 49.9913C143.485 49.1545 144.49 48.7286 145.748 48.7183C146.267 48.7183 146.697 48.7573 147.044 48.8342C147.22 48.8675 147.374 48.9042 147.505 48.9421C147.628 48.9869 147.725 49.0248 147.786 49.0592L147.705 50.0843Z" fill="white"/>
<path d="M149.807 44.8049H150.845V50.3955H150.876C151.109 49.9053 151.451 49.4989 151.905 49.1775C152.358 48.8825 152.893 48.7287 153.509 48.7183C154.636 48.7287 155.404 49.073 155.816 49.7492C156.214 50.4357 156.409 51.3322 156.398 52.4377V57.6736H155.362V52.4492C155.362 52.0635 155.341 51.6961 155.296 51.3506C155.249 51.02 155.153 50.7296 155.012 50.4781C154.749 49.9294 154.193 49.6505 153.352 49.639C152.443 49.6619 151.794 50.0213 151.404 50.7215C151.019 51.4195 150.834 52.176 150.845 52.9853V57.6736H149.807V44.8049Z" fill="white"/>
<path d="M165.925 55.613C165.913 56.2788 165.936 56.9653 165.996 57.6736H164.984V56.1169H164.95C164.875 56.3063 164.769 56.498 164.635 56.6932C164.505 56.8998 164.335 57.0973 164.124 57.281C163.914 57.4543 163.654 57.5909 163.341 57.6919C163.032 57.8193 162.658 57.8848 162.215 57.8848C161.19 57.8733 160.451 57.5496 160 56.9205C159.545 56.2994 159.323 55.4982 159.335 54.5167V48.9272H160.371V54.2457C160.371 55.0838 160.53 55.7381 160.85 56.2076C161.163 56.7116 161.674 56.963 162.383 56.963C162.858 56.963 163.261 56.8596 163.59 56.653C163.926 56.4556 164.18 56.2053 164.353 55.8977C164.552 55.5797 164.691 55.2341 164.767 54.8668C164.847 54.5029 164.887 54.1355 164.887 53.7682V48.9272H165.925V55.613Z" fill="white"/>
<path d="M168.861 50.9786C168.861 50.3093 168.841 49.6263 168.797 48.9272H169.807V50.485H169.84C169.936 50.2783 170.052 50.0717 170.186 49.8662C170.316 49.6584 170.481 49.4725 170.681 49.3037C170.892 49.12 171.148 48.9743 171.458 48.8686C171.768 48.7688 172.138 48.7183 172.564 48.7183C173.604 48.7286 174.351 49.0512 174.804 49.6814C175.236 50.2967 175.45 51.0945 175.45 52.0772V57.6735H174.414V52.3481C174.414 51.5147 174.267 50.8523 173.969 50.3598C173.644 49.8903 173.123 49.6504 172.404 49.6389C171.474 49.6619 170.819 50.0028 170.441 50.6618C170.246 50.9752 170.108 51.3138 170.027 51.6777C169.94 52.0565 169.898 52.4422 169.898 52.8348V57.6735H168.861V50.9786Z" fill="white"/>
<path d="M179.02 53.3009C179.01 54.1963 179.196 54.9804 179.581 55.6531C179.961 56.3637 180.588 56.7322 181.465 56.754C182.408 56.7322 183.077 56.3533 183.473 55.6198C183.851 54.9092 184.041 54.1355 184.041 53.3009C184.041 52.2092 183.865 51.3299 183.513 50.6641C183.144 49.9913 182.484 49.6504 181.53 49.6389C181.033 49.6389 180.626 49.748 180.312 49.9672C179.992 50.1681 179.733 50.4528 179.534 50.8236C179.354 51.1646 179.222 51.5549 179.135 51.9899C179.059 52.4273 179.02 52.8635 179.02 53.3009ZM185.076 56.9537C185.076 58.2004 184.785 59.2405 184.2 60.0796C183.592 60.9222 182.562 61.355 181.117 61.3768C180.561 61.3665 180.051 61.3056 179.585 61.1931C179.133 61.0772 178.788 60.9854 178.557 60.9176L178.647 59.8443C179.344 60.2289 180.173 60.4332 181.136 60.4562C181.812 60.4447 182.343 60.3195 182.728 60.0796C183.127 59.85 183.421 59.5297 183.611 59.1176C183.811 58.7044 183.938 58.2314 183.992 57.6953C184.037 57.1604 184.057 56.5841 184.057 55.963H184.024C183.426 57.1259 182.569 57.6953 181.456 57.6735C180.129 57.6402 179.2 57.1489 178.672 56.2007C178.39 55.7633 178.195 55.2949 178.088 54.7921C177.953 54.2905 177.886 53.7922 177.886 53.3009C177.874 51.9383 178.146 50.8408 178.703 50.0086C179.254 49.1591 180.142 48.7286 181.369 48.7183C181.924 48.7183 182.412 48.7814 182.833 48.91C183.238 49.0649 183.63 49.3967 184.008 49.9075H184.041V48.9249L185.076 48.9272V56.9537Z" fill="white"/>
<path d="M187.265 56.4084C187.907 56.7678 188.639 56.9514 189.465 56.9629C189.989 56.9629 190.43 56.8194 190.792 56.5347C191.149 56.2718 191.332 55.8953 191.343 55.4017C191.332 54.8817 191.126 54.4741 190.727 54.178C190.327 53.8933 189.857 53.635 189.318 53.4065C189.064 53.2837 188.82 53.1505 188.59 53.0116C188.357 52.8727 188.136 52.7189 187.925 52.5501C187.737 52.3665 187.58 52.153 187.455 51.913C187.336 51.6846 187.279 51.416 187.279 51.1083C187.289 50.2359 187.573 49.6183 188.136 49.2544C188.679 48.8973 189.311 48.7183 190.029 48.7183C190.271 48.7183 190.586 48.7401 190.976 48.7848C191.359 48.8514 191.737 48.9605 192.115 49.1086L192.019 50.0499C191.408 49.787 190.781 49.6504 190.137 49.6389C189.597 49.6389 189.167 49.7388 188.848 49.9408C188.681 50.0476 188.552 50.1922 188.46 50.3771C188.362 50.5561 188.312 50.7961 188.312 51.098C188.312 51.2771 188.375 51.447 188.5 51.6111C188.618 51.7615 188.778 51.8981 188.977 52.0209C189.179 52.138 189.405 52.2586 189.658 52.3825C189.912 52.4985 190.161 52.6236 190.403 52.7591C190.956 52.999 191.435 53.3216 191.847 53.7234C192.256 54.1263 192.467 54.6819 192.478 55.3936C192.478 55.8505 192.389 56.234 192.211 56.5416C192.023 56.8596 191.786 57.1179 191.5 57.3119C190.88 57.693 190.224 57.8847 189.527 57.8847C188.715 57.8847 187.927 57.7447 187.169 57.4692L187.265 56.4084Z" fill="white"/>
<path d="M195.213 53.3009C195.202 54.1963 195.388 54.9804 195.773 55.6531C196.153 56.3637 196.78 56.7322 197.657 56.754C198.599 56.7322 199.268 56.3533 199.665 55.6198C200.043 54.9092 200.233 54.1355 200.233 53.3009C200.233 52.2092 200.057 51.3299 199.705 50.6641C199.336 49.9913 198.676 49.6504 197.722 49.6389C197.225 49.6389 196.818 49.748 196.504 49.9672C196.184 50.1681 195.924 50.4528 195.726 50.8236C195.546 51.1646 195.414 51.5549 195.327 51.9899C195.252 52.4273 195.213 52.8635 195.213 53.3009ZM201.268 56.9537C201.268 58.2004 200.977 59.2405 200.393 60.0796C199.784 60.9222 198.754 61.355 197.309 61.3768C196.753 61.3665 196.243 61.3056 195.778 61.1931C195.325 61.0772 194.98 60.9854 194.75 60.9176L194.839 59.8443C195.536 60.2289 196.365 60.4332 197.328 60.4562C198.004 60.4447 198.535 60.3195 198.92 60.0796C199.318 59.85 199.613 59.5297 199.804 59.1176C200.003 58.7044 200.13 58.2314 200.184 57.6953C200.229 57.1604 200.249 56.5841 200.249 55.963H200.216C199.618 57.1259 198.761 57.6953 197.648 57.6735C196.321 57.6402 195.392 57.1489 194.864 56.2007C194.582 55.7633 194.387 55.2949 194.28 54.7921C194.146 54.2905 194.078 53.7922 194.078 53.3009C194.067 51.9383 194.338 50.8408 194.895 50.0086C195.446 49.1591 196.335 48.7286 197.561 48.7183C198.117 48.7183 198.604 48.7814 199.025 48.91C199.43 49.0649 199.822 49.3967 200.2 49.9075H200.233V48.9249L201.268 48.9272V56.9537Z" fill="white"/>
<path d="M209.265 52.6891C209.265 51.8866 209.104 51.1841 208.779 50.5837C208.437 49.9753 207.877 49.6619 207.098 49.6389C206.335 49.6619 205.731 49.981 205.287 50.5998C204.834 51.2231 204.605 51.9199 204.605 52.6891H209.265ZM209.773 57.4026C208.979 57.7114 208.162 57.8732 207.318 57.8847C205.935 57.8549 204.946 57.4129 204.345 56.5588C203.751 55.7231 203.459 54.6348 203.47 53.3009C203.481 51.9383 203.812 50.8351 204.467 49.9913C205.097 49.1545 205.952 48.7286 207.034 48.7183C208.215 48.7401 209.08 49.1706 209.624 50.0086C210.143 50.8294 210.402 51.8465 210.402 53.0564V53.6109H204.605C204.605 54.5614 204.845 55.3466 205.319 55.963C205.785 56.6174 206.477 56.9514 207.396 56.9629C207.809 56.9629 208.241 56.886 208.695 56.7368C209.149 56.6128 209.509 56.4693 209.773 56.3074V57.4026Z" fill="white"/>
<path d="M223.049 57.6735V51.8533C223.049 51.5296 223.027 51.23 222.982 50.9556C222.912 50.6928 222.803 50.4632 222.651 50.268C222.517 50.066 222.329 49.9075 222.085 49.7893C221.843 49.6894 221.541 49.6389 221.181 49.6389C220.573 49.6389 220.032 49.8903 219.56 50.3943C219.074 50.92 218.826 51.734 218.814 52.8348V57.6735H217.78V51.8533C217.78 51.5296 217.753 51.23 217.704 50.9556C217.637 50.6928 217.525 50.4632 217.375 50.268C217.238 50.066 217.05 49.9075 216.809 49.7893C216.564 49.6894 216.265 49.6389 215.904 49.6389C215.296 49.6389 214.754 49.8903 214.282 50.3943C213.796 50.92 213.549 51.734 213.539 52.8348V57.6735H212.499V50.9797C212.499 50.3093 212.48 49.6263 212.435 48.9272H213.478V50.4023L213.509 50.4184C213.588 50.2565 213.697 50.0786 213.836 49.8823C213.946 49.6871 214.105 49.5058 214.31 49.3382C214.516 49.1648 214.772 49.0133 215.076 48.8859C215.383 48.7734 215.763 48.7183 216.218 48.7183C216.424 48.7183 216.648 48.7401 216.885 48.7848C217.113 48.8296 217.341 48.9215 217.57 49.0604C217.795 49.1889 217.997 49.3726 218.17 49.6114C218.335 49.8616 218.457 50.1785 218.528 50.563H218.561C218.776 50.0396 219.126 49.6033 219.603 49.2521C220.07 48.9077 220.65 48.7286 221.343 48.7183C222.228 48.7286 222.908 49.003 223.384 49.5391C223.853 50.0694 224.086 50.7743 224.086 51.6513V57.6735H223.049Z" fill="white"/>
<path d="M232.099 52.6891C232.099 51.8866 231.935 51.1841 231.611 50.5837C231.27 49.9753 230.709 49.6619 229.929 49.6389C229.166 49.6619 228.564 49.981 228.119 50.5998C227.665 51.2231 227.439 51.9199 227.439 52.6891H232.099ZM232.604 57.4026C231.812 57.7114 230.993 57.8732 230.152 57.8847C228.768 57.8549 227.776 57.4129 227.177 56.5588C226.583 55.7231 226.291 54.6348 226.301 53.3009C226.313 51.9383 226.644 50.8351 227.297 49.9913C227.928 49.1545 228.786 48.7286 229.865 48.7183C231.047 48.7401 231.911 49.1706 232.456 50.0086C232.974 50.8294 233.233 51.8465 233.233 53.0564V53.6109H227.439C227.439 54.5614 227.676 55.3466 228.153 55.963C228.616 56.6174 229.309 56.9514 230.227 56.9629C230.639 56.9629 231.071 56.886 231.526 56.7368C231.98 56.6128 232.341 56.4693 232.604 56.3074V57.4026Z" fill="white"/>
<path d="M235.504 48.9272H236.537V57.6735H235.504V48.9272ZM236.537 46.5899H235.504V45.1504H236.537V46.5899Z" fill="white"/>
<path d="M239.308 50.9786C239.308 50.3093 239.286 49.6263 239.243 48.9272H240.253V50.485H240.286C240.382 50.2783 240.499 50.0717 240.633 49.8662C240.763 49.6584 240.927 49.4725 241.126 49.3037C241.336 49.12 241.596 48.9743 241.903 48.8686C242.216 48.7688 242.585 48.7183 243.01 48.7183C244.052 48.7286 244.797 49.0512 245.25 49.6814C245.68 50.2967 245.896 51.0945 245.896 52.0772V57.6735H244.862V52.3481C244.862 51.5147 244.712 50.8523 244.414 50.3598C244.09 49.8903 243.568 49.6504 242.85 49.6389C241.92 49.6619 241.265 50.0028 240.887 50.6618C240.692 50.9752 240.555 51.3138 240.473 51.6777C240.387 52.0565 240.342 52.4422 240.342 52.8348V57.6735H239.308V50.9786Z" fill="white"/>
<path d="M248.186 56.4084C248.829 56.7678 249.56 56.9514 250.386 56.9629C250.91 56.9629 251.351 56.8194 251.713 56.5347C252.07 56.2718 252.253 55.8953 252.264 55.4017C252.253 54.8817 252.047 54.4741 251.649 54.178C251.248 53.8933 250.778 53.635 250.238 53.4065C249.985 53.2837 249.741 53.1505 249.51 53.0116C249.278 52.8727 249.057 52.7189 248.846 52.5501C248.658 52.3665 248.501 52.153 248.376 51.913C248.258 51.6846 248.199 51.416 248.199 51.1083C248.211 50.2359 248.495 49.6183 249.057 49.2544C249.6 48.8973 250.231 48.7183 250.95 48.7183C251.192 48.7183 251.507 48.7401 251.896 48.7848C252.279 48.8514 252.657 48.9605 253.036 49.1086L252.939 50.0499C252.329 49.787 251.702 49.6504 251.058 49.6389C250.518 49.6389 250.088 49.7388 249.768 49.9408C249.602 50.0476 249.473 50.1922 249.381 50.3771C249.282 50.5561 249.233 50.7961 249.233 51.098C249.233 51.2771 249.296 51.447 249.421 51.6111C249.54 51.7615 249.698 51.8981 249.898 52.0209C250.099 52.138 250.325 52.2586 250.579 52.3825C250.834 52.4985 251.082 52.6236 251.323 52.7591C251.877 52.999 252.356 53.3216 252.767 53.7234C253.178 54.1263 253.387 54.6819 253.399 55.3936C253.399 55.8505 253.31 56.234 253.132 56.5416C252.944 56.8596 252.707 57.1179 252.42 57.3119C251.8 57.693 251.145 57.8847 250.449 57.8847C249.636 57.8847 248.848 57.7447 248.089 57.4692L248.186 56.4084Z" fill="white"/>
<path d="M261.001 50.0843C260.4 49.7985 259.796 49.6504 259.185 49.6389C258.169 49.6504 257.392 49.9856 256.851 50.6468C256.284 51.3241 255.999 52.2092 255.999 53.3009C255.999 54.3192 256.28 55.1732 256.835 55.862C257.377 56.5841 258.122 56.9514 259.073 56.9629C259.726 56.9629 260.362 56.8309 260.985 56.568L261.081 57.5771C260.395 57.7917 259.672 57.8951 258.911 57.8847C257.553 57.8549 256.539 57.3911 255.877 56.4922C255.201 55.6106 254.865 54.5453 254.865 53.3009C254.876 51.9153 255.261 50.8133 256.022 49.9913C256.779 49.1545 257.784 48.7286 259.042 48.7183C259.561 48.7183 259.991 48.7573 260.338 48.8342C260.515 48.8675 260.669 48.9042 260.799 48.9421C260.922 48.9869 261.018 49.0248 261.081 49.0592L261.001 50.0843Z" fill="white"/>
<path d="M263.102 44.8049H264.136V50.3955H264.169C264.402 49.9053 264.745 49.4989 265.197 49.1775C265.651 48.8825 266.184 48.7287 266.799 48.7183C267.928 48.7287 268.697 49.073 269.108 49.7492C269.509 50.4357 269.7 51.3322 269.69 52.4377V57.6736H268.655V52.4492C268.655 52.0635 268.633 51.6961 268.591 51.3506C268.541 51.02 268.447 50.7296 268.306 50.4781C268.042 49.9294 267.487 49.6505 266.644 49.639C265.735 49.6619 265.085 50.0213 264.695 50.7215C264.313 51.4195 264.125 52.176 264.136 52.9853V57.6736H263.102V44.8049Z" fill="white"/>
<path d="M277.388 53.2654H277.087C276.632 53.2654 276.179 53.2792 275.724 53.301C275.247 53.3435 274.815 53.4422 274.426 53.5949C274.037 53.7292 273.725 53.9381 273.492 54.2251C273.237 54.5167 273.112 54.9024 273.112 55.3845C273.112 55.9425 273.288 56.3442 273.647 56.5842C273.976 56.8367 274.385 56.963 274.871 56.963C275.482 56.963 275.963 56.8367 276.315 56.5842C276.662 56.3442 276.912 56.0595 277.069 55.7278C277.233 55.3685 277.325 55.0183 277.346 54.6785C277.374 54.3192 277.388 54.0254 277.388 53.7969V53.2654ZM277.483 56.2742H277.45C277.208 56.7851 276.834 57.1777 276.333 57.4497C275.836 57.7275 275.312 57.8733 274.761 57.8848C274.173 57.8733 273.699 57.7746 273.335 57.5909C272.957 57.4176 272.668 57.2006 272.469 56.9377C272.118 56.3706 271.952 55.8621 271.975 55.4155C271.975 54.6843 272.145 54.108 272.485 53.6844C272.821 53.2608 273.246 52.9578 273.765 52.7718C274.284 52.5835 274.849 52.4584 275.458 52.3976C276.057 52.3643 276.632 52.3459 277.184 52.3459H277.388V51.9005C277.421 50.3932 276.776 49.639 275.455 49.639C274.58 49.6287 273.75 49.8697 272.966 50.3645V49.3153C273.75 48.9399 274.578 48.7402 275.451 48.7183C277.454 48.6965 278.443 49.7813 278.421 51.9762V55.8391C278.405 56.5027 278.435 57.1157 278.509 57.6736H277.483V56.2742Z" fill="white"/>
<path d="M281.904 49.8491H280.197V48.9273H281.904V48.2913C281.904 47.8218 281.924 47.3638 281.969 46.9172C281.989 46.481 282.074 46.0941 282.219 45.7532C282.358 45.395 282.585 45.1138 282.898 44.906C283.193 44.7062 283.607 44.6052 284.135 44.6052C284.312 44.6052 284.496 44.611 284.684 44.6213C284.875 44.6557 285.016 44.7062 285.114 44.7717L285.049 45.7176C284.816 45.5902 284.541 45.5247 284.22 45.5247C283.874 45.5247 283.612 45.6074 283.435 45.7681C283.245 45.9529 283.118 46.1768 283.052 46.4385C282.987 46.7014 282.956 46.9815 282.956 47.2777C282.945 47.5842 282.938 47.8804 282.938 48.165V48.9273H284.845V49.8491H282.938V57.6736H281.904V49.8491Z" fill="white"/>
<path d="M290.533 49.8491H288.61V55.5189C288.61 55.923 288.698 56.2605 288.877 56.5349C289.039 56.8196 289.326 56.963 289.738 56.963C290.117 56.963 290.439 56.893 290.703 56.7518L290.768 57.6426C290.645 57.6874 290.472 57.7368 290.251 57.7919C290.018 57.8527 289.765 57.8849 289.49 57.8849C289.038 57.8849 288.68 57.8034 288.416 57.6403C288.16 57.4785 287.97 57.265 287.841 57.0032C287.728 56.73 287.654 56.4224 287.623 56.0814C287.59 55.7359 287.574 55.3616 287.574 54.961V49.8491H285.915V48.9273H287.574V46.8162L288.61 46.4397V48.9273H290.533V49.8491Z" fill="white"/>
<path d="M118.588 76.8238H116.596V76.0661H119.42V80.4479C118.575 80.8141 117.693 81.0035 116.773 80.9909C115.424 80.9656 114.377 80.5489 113.621 79.7281C112.865 78.9073 112.474 77.8087 112.474 76.4323C112.486 75.0686 112.865 73.97 113.634 73.1365C114.39 72.3157 115.436 71.8864 116.773 71.8738C117.126 71.8738 117.516 71.899 117.958 71.9622C118.386 72.0253 118.752 72.139 119.054 72.2905L118.954 73.0987C118.626 72.9092 118.273 72.783 117.907 72.7072C117.529 72.6567 117.151 72.6314 116.773 72.6314C115.663 72.6441 114.806 73.0103 114.214 73.7048C113.608 74.3993 113.306 75.3085 113.306 76.4323C113.306 77.5562 113.608 78.4654 114.201 79.1599C114.793 79.867 115.651 80.2206 116.773 80.2332C117.063 80.2332 117.39 80.208 117.743 80.1575C118.096 80.1196 118.374 80.0438 118.588 79.9175V76.8238Z" fill="white"/>
<path d="M125.941 80.6373C125.348 80.8646 124.756 80.9783 124.125 80.9909C123.117 80.9657 122.386 80.65 121.944 80.0186C121.503 79.3998 121.289 78.6043 121.302 77.6194C121.314 76.6218 121.554 75.801 122.033 75.1822C122.499 74.5635 123.129 74.2604 123.924 74.2478C124.794 74.2604 125.424 74.5761 125.827 75.1949C126.205 75.801 126.395 76.546 126.395 77.4426V77.8467H122.134C122.134 78.5412 122.31 79.122 122.663 79.5766C123.003 80.0565 123.508 80.2964 124.188 80.309C124.491 80.309 124.806 80.2585 125.146 80.1449C125.474 80.0565 125.739 79.9428 125.941 79.8292V80.6373ZM125.562 77.1648C125.562 76.5713 125.449 76.0662 125.21 75.6242C124.957 75.1696 124.541 74.9423 123.961 74.9297C123.407 74.9423 122.966 75.1822 122.638 75.6368C122.297 76.0914 122.134 76.5965 122.134 77.1648H125.562Z" fill="white"/>
<path d="M128.059 75.8389C128.059 75.2454 128.046 74.7655 128.008 74.3993H128.777V75.6368H128.803C128.954 75.258 129.155 74.9297 129.42 74.6645C129.685 74.3993 130.013 74.2604 130.404 74.2478C130.605 74.2604 130.782 74.2857 130.933 74.3236V75.1444C130.769 75.0938 130.58 75.0686 130.378 75.0686C130.076 75.0812 129.824 75.157 129.635 75.2959C129.433 75.4474 129.282 75.6495 129.155 75.9146C129.042 76.1672 128.954 76.445 128.916 76.7354C128.853 77.0511 128.828 77.3542 128.828 77.6446V80.8394H128.059V75.8389Z" fill="white"/>
<path d="M139.907 80.8394V76.5586C139.907 76.3187 139.895 76.104 139.857 75.902C139.807 75.7 139.731 75.5358 139.618 75.3969C139.517 75.2454 139.378 75.1317 139.202 75.0433C139.025 74.9676 138.798 74.9297 138.533 74.9297C138.092 74.9297 137.689 75.1191 137.336 75.4853C136.983 75.8641 136.806 76.4703 136.794 77.2784V80.8394H136.025V76.5586C136.025 76.3187 136.012 76.104 135.974 75.902C135.924 75.7 135.836 75.5358 135.722 75.3969C135.634 75.2454 135.495 75.1317 135.306 75.0433C135.13 74.9676 134.915 74.9297 134.651 74.9297C134.197 74.9297 133.806 75.1191 133.453 75.4853C133.1 75.8641 132.924 76.4703 132.911 77.2784V80.8394H132.142V75.9146C132.142 75.4222 132.129 74.9171 132.092 74.3993H132.861V75.4853L132.886 75.4979C132.949 75.3717 133.024 75.2454 133.125 75.1065C133.201 74.9549 133.327 74.8287 133.478 74.7024C133.63 74.5761 133.819 74.4625 134.046 74.3741C134.26 74.2857 134.55 74.2478 134.878 74.2478C135.029 74.2478 135.193 74.2604 135.369 74.2983C135.546 74.3236 135.71 74.3993 135.873 74.5003C136.05 74.5887 136.189 74.7276 136.315 74.9044C136.441 75.0938 136.529 75.3211 136.579 75.6116H136.605C136.769 75.2201 137.021 74.9044 137.374 74.6393C137.714 74.3867 138.143 74.2604 138.659 74.2478C139.302 74.2604 139.807 74.4625 140.16 74.8539C140.5 75.2454 140.676 75.7631 140.676 76.4071V80.8394H139.907Z" fill="white"/>
<path d="M146.338 79.8038H146.313C146.136 80.1827 145.859 80.4731 145.493 80.6751C145.128 80.8772 144.737 80.9782 144.333 80.9908C143.905 80.9782 143.552 80.9151 143.287 80.7762C143.01 80.6499 142.795 80.4857 142.657 80.2963C142.392 79.8796 142.279 79.5008 142.291 79.1724C142.291 78.6421 142.417 78.2128 142.669 77.8971C142.909 77.5814 143.224 77.3667 143.602 77.2278C143.98 77.0889 144.396 77.0005 144.85 76.95C145.292 76.9247 145.708 76.9121 146.111 76.9121H146.262V76.5838C146.287 75.4852 145.821 74.9296 144.85 74.9296C144.207 74.917 143.59 75.0938 143.022 75.46V74.6897C143.59 74.4119 144.207 74.2603 144.85 74.2477C146.313 74.2351 147.044 75.0306 147.031 76.6469V79.4881C147.019 79.9806 147.044 80.4226 147.094 80.8393H146.338V79.8038ZM146.262 77.594H146.048C145.708 77.594 145.38 77.6066 145.039 77.6193C144.686 77.6445 144.371 77.7203 144.094 77.8339C143.804 77.935 143.577 78.0865 143.401 78.3012C143.211 78.5158 143.123 78.7936 143.123 79.1472C143.123 79.5639 143.249 79.8543 143.514 80.0311C143.754 80.2205 144.056 80.3089 144.422 80.3089C144.863 80.3089 145.216 80.2205 145.481 80.0311C145.733 79.8543 145.922 79.6397 146.035 79.3997C146.149 79.1346 146.212 78.882 146.237 78.6295C146.25 78.3643 146.262 78.1496 146.262 77.9855V77.594Z" fill="white"/>
<path d="M149.061 75.9146C149.061 75.4222 149.048 74.9171 149.01 74.3993H149.754V75.5484H149.779C149.855 75.3969 149.943 75.2454 150.044 75.0938C150.132 74.9423 150.259 74.8034 150.41 74.6771C150.561 74.5382 150.75 74.4372 150.977 74.3614C151.204 74.2857 151.481 74.2478 151.796 74.2478C152.565 74.2604 153.12 74.4877 153.448 74.9549C153.763 75.4095 153.927 76.003 153.927 76.7228V80.8394H153.158V76.9248C153.158 76.3061 153.045 75.8262 152.83 75.46C152.591 75.1191 152.213 74.9423 151.67 74.9297C150.99 74.9423 150.511 75.1949 150.233 75.6873C150.082 75.9146 149.981 76.1546 149.931 76.4324C149.855 76.7102 149.83 76.988 149.83 77.2784V80.8394H149.061V75.9146Z" fill="white"/>
<path d="M160.533 75.9272H161.428C161.957 75.9398 162.436 75.8135 162.877 75.5736C163.319 75.3337 163.546 74.917 163.558 74.3109C163.558 73.9447 163.508 73.6669 163.394 73.4522C163.281 73.2501 163.117 73.086 162.928 72.9976C162.726 72.8966 162.499 72.8334 162.235 72.8082C161.97 72.7955 161.692 72.7829 161.403 72.7829H160.533V75.9272ZM159.701 72.0253H161.894C163.508 72 164.34 72.7577 164.39 74.3109C164.378 74.8791 164.201 75.3463 163.836 75.6873C163.483 76.0408 163.041 76.2555 162.499 76.3439V76.3692C162.827 76.407 163.067 76.5207 163.218 76.6975C163.293 76.7859 163.357 76.8869 163.42 77.0132C163.483 77.1394 163.546 77.2783 163.609 77.4299L165.046 80.8393H164.126L162.89 77.8592C162.663 77.3162 162.424 76.9753 162.184 76.8364C162.058 76.7606 161.919 76.7101 161.756 76.6975C161.604 76.6848 161.428 76.6848 161.226 76.6848H160.533V80.8393H159.701V72.0253Z" fill="white"/>
<path d="M170.77 80.6373C170.178 80.8646 169.585 80.9783 168.955 80.9909C167.946 80.9657 167.215 80.65 166.774 80.0186C166.333 79.3998 166.118 78.6043 166.131 77.6194C166.144 76.6218 166.383 75.801 166.862 75.1822C167.328 74.5635 167.959 74.2604 168.753 74.2478C169.623 74.2604 170.253 74.5761 170.657 75.1949C171.035 75.801 171.224 76.546 171.224 77.4426V77.8467H166.963C166.963 78.5412 167.139 79.122 167.492 79.5766C167.833 80.0565 168.337 80.2964 169.018 80.309C169.32 80.309 169.635 80.2585 169.976 80.1449C170.304 80.0565 170.568 79.9428 170.77 79.8292V80.6373ZM170.392 77.1648C170.392 76.5713 170.278 76.0662 170.039 75.6242C169.787 75.1696 169.371 74.9423 168.791 74.9297C168.236 74.9423 167.795 75.1822 167.467 75.6368C167.127 76.0914 166.963 76.5965 166.963 77.1648H170.392Z" fill="white"/>
<path d="M172.409 79.9049C172.888 80.1701 173.43 80.2964 174.035 80.309C174.426 80.309 174.754 80.208 175.018 79.9933C175.283 79.8039 175.409 79.5261 175.422 79.1599C175.409 78.7811 175.258 78.478 174.968 78.2634C174.678 78.0487 174.325 77.8593 173.934 77.6951C173.745 77.6067 173.556 77.5057 173.392 77.4047C173.216 77.3037 173.052 77.19 172.901 77.0637C172.762 76.9248 172.649 76.7733 172.56 76.5965C172.472 76.4324 172.422 76.2303 172.422 76.003C172.434 75.359 172.636 74.9044 173.052 74.6393C173.455 74.3741 173.922 74.2478 174.451 74.2478C174.628 74.2478 174.867 74.2604 175.145 74.2983C175.435 74.3488 175.712 74.4246 175.989 74.5382L175.914 75.2201C175.472 75.0307 175.006 74.9423 174.527 74.9297C174.136 74.9297 173.821 75.0055 173.581 75.1444C173.455 75.2328 173.367 75.3338 173.291 75.4727C173.228 75.5989 173.191 75.7757 173.191 76.003C173.191 76.1293 173.241 76.2556 173.329 76.3819C173.417 76.4829 173.531 76.5839 173.682 76.6849C173.821 76.7607 173.997 76.8491 174.174 76.9501C174.363 77.0259 174.552 77.1269 174.729 77.2279C175.132 77.4047 175.485 77.632 175.787 77.935C176.09 78.2255 176.241 78.6422 176.254 79.1599C176.254 79.5009 176.191 79.7787 176.052 80.006C175.914 80.2333 175.737 80.4227 175.535 80.5742C175.082 80.852 174.59 80.9909 174.086 80.9909C173.481 80.9909 172.901 80.8899 172.346 80.6879L172.409 79.9049Z" fill="white"/>
<path d="M181.98 80.6373C181.387 80.8646 180.795 80.9783 180.164 80.9909C179.156 80.9657 178.425 80.65 177.983 80.0186C177.542 79.3998 177.328 78.6043 177.34 77.6194C177.353 76.6218 177.592 75.801 178.072 75.1822C178.538 74.5635 179.168 74.2604 179.962 74.2478C180.832 74.2604 181.463 74.5761 181.866 75.1949C182.244 75.801 182.433 76.546 182.433 77.4426V77.8467H178.172C178.172 78.5412 178.349 79.122 178.702 79.5766C179.042 80.0565 179.546 80.2964 180.227 80.309C180.53 80.309 180.845 80.2585 181.185 80.1449C181.513 80.0565 181.778 79.9428 181.98 79.8292V80.6373ZM181.601 77.1648C181.601 76.5713 181.488 76.0662 181.248 75.6242C180.996 75.1696 180.58 74.9423 180 74.9297C179.446 74.9423 179.004 75.1822 178.677 75.6368C178.336 76.0914 178.172 76.5965 178.172 77.1648H181.601Z" fill="white"/>
<path d="M187.677 79.8038H187.652C187.476 80.1827 187.198 80.4731 186.833 80.6751C186.467 80.8772 186.076 80.9782 185.673 80.9908C185.244 80.9782 184.891 80.9151 184.627 80.7762C184.349 80.6499 184.135 80.4857 183.996 80.2963C183.732 79.8796 183.618 79.5008 183.631 79.1724C183.631 78.6421 183.757 78.2128 184.009 77.8971C184.249 77.5814 184.564 77.3667 184.942 77.2278C185.32 77.0889 185.736 77.0005 186.19 76.95C186.631 76.9247 187.047 76.9121 187.451 76.9121H187.602V76.5838C187.627 75.4852 187.161 74.9296 186.19 74.9296C185.547 74.917 184.929 75.0938 184.362 75.46V74.6897C184.929 74.4119 185.547 74.2603 186.19 74.2477C187.652 74.2351 188.383 75.0306 188.371 76.6469V79.4881C188.358 79.9806 188.383 80.4226 188.434 80.8393H187.677V79.8038ZM187.602 77.594H187.388C187.047 77.594 186.719 77.6066 186.379 77.6193C186.026 77.6445 185.711 77.7203 185.434 77.8339C185.144 77.935 184.917 78.0865 184.74 78.3012C184.551 78.5158 184.463 78.7936 184.463 79.1472C184.463 79.5639 184.589 79.8543 184.854 80.0311C185.093 80.2205 185.396 80.3089 185.761 80.3089C186.203 80.3089 186.556 80.2205 186.82 80.0311C187.072 79.8543 187.261 79.6397 187.375 79.3997C187.488 79.1346 187.551 78.882 187.577 78.6295C187.589 78.3643 187.602 78.1496 187.602 77.9855V77.594Z" fill="white"/>
<path d="M190.401 75.8389C190.401 75.2454 190.388 74.7655 190.35 74.3993H191.119V75.6368H191.144C191.296 75.258 191.497 74.9297 191.762 74.6645C192.027 74.3993 192.355 74.2604 192.745 74.2478C192.947 74.2604 193.123 74.2857 193.275 74.3236V75.1444C193.111 75.0938 192.922 75.0686 192.72 75.0686C192.418 75.0812 192.165 75.157 191.976 75.2959C191.775 75.4474 191.623 75.6495 191.497 75.9146C191.384 76.1672 191.296 76.445 191.258 76.7354C191.195 77.0511 191.17 77.3542 191.17 77.6446V80.8394H190.401V75.8389Z" fill="white"/>
<path d="M198.43 75.258C197.988 75.0433 197.547 74.9423 197.093 74.9297C196.35 74.9423 195.77 75.1822 195.379 75.6747C194.95 76.1672 194.749 76.8112 194.749 77.6194C194.749 78.3644 194.95 78.9958 195.366 79.5009C195.757 80.0312 196.312 80.2964 197.005 80.309C197.484 80.309 197.963 80.208 198.417 80.0186L198.493 80.7636C197.988 80.9278 197.446 81.0035 196.892 80.9909C195.896 80.9657 195.152 80.6247 194.66 79.9681C194.169 79.3241 193.917 78.5412 193.917 77.6194C193.929 76.5965 194.206 75.7884 194.774 75.1822C195.328 74.5635 196.06 74.2604 196.992 74.2478C197.371 74.2478 197.686 74.2731 197.938 74.3362C198.077 74.3614 198.19 74.3867 198.278 74.412C198.367 74.4498 198.442 74.4751 198.493 74.5003L198.43 75.258Z" fill="white"/>
<path d="M199.965 71.3687H200.734V75.4852H200.76C200.923 75.119 201.176 74.8286 201.516 74.5887C201.856 74.374 202.247 74.2604 202.701 74.2477C203.533 74.2604 204.1 74.5129 204.403 75.0054C204.693 75.5105 204.844 76.1671 204.831 76.9879V80.8393H204.062V77.0005C204.062 76.7101 204.05 76.4449 204.012 76.1924C203.974 75.9398 203.911 75.7252 203.81 75.5484C203.609 75.1443 203.205 74.9422 202.575 74.9296C201.907 74.9422 201.428 75.2074 201.15 75.7252C200.86 76.2429 200.722 76.7985 200.734 77.392V80.8393H199.965V71.3687Z" fill="white"/>
<path d="M210.466 72.0254H214.513V72.783H211.298V75.9273H214.362V76.685H211.298V80.8394H210.466V72.0254Z" fill="white"/>
<path d="M215.609 77.6194C215.609 76.6975 215.848 75.9146 216.315 75.2706C216.781 74.6014 217.512 74.2604 218.508 74.2478C219.517 74.2604 220.248 74.6014 220.727 75.2706C221.181 75.9146 221.408 76.6975 221.408 77.6194C221.408 78.5159 221.181 79.2988 220.727 79.9555C220.248 80.6247 219.517 80.9657 218.508 80.9909C217.512 80.9657 216.781 80.6247 216.315 79.9555C215.848 79.2988 215.609 78.5159 215.609 77.6194ZM216.441 77.6194C216.441 78.3896 216.617 79.021 216.983 79.5135C217.323 80.0312 217.827 80.2964 218.508 80.309C219.189 80.2964 219.706 80.0312 220.059 79.5135C220.412 79.021 220.576 78.3896 220.576 77.6194C220.576 76.8491 220.412 76.2051 220.059 75.7C219.706 75.1949 219.189 74.9423 218.508 74.9297C217.827 74.9423 217.323 75.1949 216.983 75.7C216.617 76.2051 216.441 76.8491 216.441 77.6194Z" fill="white"/>
<path d="M227.951 79.3242C227.939 79.8166 227.964 80.3217 228.002 80.8395H227.258V79.6904H227.233C227.17 79.8293 227.094 79.9682 226.993 80.1197C226.905 80.2712 226.779 80.4101 226.628 80.549C226.464 80.6753 226.275 80.7763 226.048 80.8521C225.821 80.9405 225.544 80.991 225.216 80.991C224.459 80.9784 223.905 80.7511 223.577 80.2839C223.237 79.8293 223.073 79.2358 223.085 78.516V74.3994H223.854V78.314C223.854 78.9327 223.968 79.4126 224.207 79.7535C224.434 80.1197 224.812 80.3091 225.342 80.3091C225.682 80.3091 225.985 80.2333 226.224 80.0818C226.476 79.9429 226.666 79.7535 226.792 79.5262C226.93 79.2863 227.044 79.0337 227.094 78.7686C227.157 78.5034 227.182 78.2256 227.182 77.9604V74.3994H227.951V79.3242Z" fill="white"/>
<path d="M230.097 75.9146C230.097 75.4222 230.084 74.9171 230.046 74.3993H230.79V75.5484H230.815C230.891 75.3969 230.979 75.2454 231.08 75.0938C231.168 74.9423 231.294 74.8034 231.446 74.6771C231.597 74.5382 231.786 74.4372 232.013 74.3614C232.24 74.2857 232.517 74.2478 232.832 74.2478C233.601 74.2604 234.156 74.4877 234.484 74.9549C234.799 75.4095 234.963 76.003 234.963 76.7228V80.8394H234.194V76.9248C234.194 76.3061 234.08 75.8262 233.866 75.46C233.627 75.1191 233.248 74.9423 232.706 74.9297C232.026 74.9423 231.547 75.1949 231.269 75.6873C231.118 75.9146 231.017 76.1546 230.967 76.4324C230.891 76.7102 230.866 76.988 230.866 77.2784V80.8394H230.097V75.9146Z" fill="white"/>
<path d="M242.05 80.8393H241.281V79.8165H241.256C240.852 80.612 240.209 81.0035 239.314 80.9909C238.47 80.9656 237.827 80.6499 237.411 80.0185C236.969 79.3872 236.755 78.579 236.755 77.6193C236.743 76.6217 236.944 75.8136 237.36 75.1948C237.764 74.5761 238.419 74.2604 239.314 74.2477C239.629 74.2477 239.894 74.2982 240.121 74.3866C240.361 74.475 240.55 74.6013 240.714 74.7402C241.029 75.0306 241.205 75.2832 241.256 75.4852H241.281V71.3687H242.05V80.8393ZM237.587 77.6193C237.587 77.9224 237.612 78.2254 237.675 78.5411C237.738 78.8568 237.827 79.1599 237.965 79.425C238.104 79.6776 238.306 79.8796 238.533 80.0438C238.772 80.2206 239.062 80.309 239.44 80.309C239.781 80.309 240.071 80.2206 240.31 80.0438C240.55 79.8796 240.739 79.665 240.877 79.3998C241.155 78.8315 241.293 78.238 241.281 77.6193C241.281 77.3162 241.256 77.0005 241.193 76.6849C241.13 76.3818 241.029 76.0914 240.877 75.8262C240.739 75.5484 240.55 75.3337 240.31 75.1695C240.071 75.0054 239.781 74.9296 239.44 74.9296C239.062 74.9296 238.772 75.0054 238.533 75.1695C238.306 75.3211 238.104 75.5231 237.965 75.8009C237.827 76.0535 237.738 76.3313 237.675 76.6596C237.612 76.9753 237.587 77.3036 237.587 77.6193Z" fill="white"/>
<path d="M247.698 79.8038H247.673C247.497 80.1827 247.219 80.4731 246.854 80.6751C246.488 80.8772 246.097 80.9782 245.694 80.9908C245.265 80.9782 244.912 80.9151 244.648 80.7762C244.37 80.6499 244.156 80.4857 244.017 80.2963C243.753 79.8796 243.639 79.5008 243.652 79.1724C243.652 78.6421 243.778 78.2128 244.03 77.8971C244.27 77.5814 244.585 77.3667 244.963 77.2278C245.341 77.0889 245.757 77.0005 246.211 76.95C246.652 76.9247 247.068 76.9121 247.472 76.9121H247.623V76.5838C247.648 75.4852 247.182 74.9296 246.211 74.9296C245.568 74.917 244.95 75.0938 244.383 75.46V74.6897C244.95 74.4119 245.568 74.2603 246.211 74.2477C247.673 74.2351 248.404 75.0306 248.392 76.6469V79.4881C248.379 79.9806 248.404 80.4226 248.455 80.8393H247.698V79.8038ZM247.623 77.594H247.409C247.068 77.594 246.74 77.6066 246.4 77.6193C246.047 77.6445 245.732 77.7203 245.455 77.8339C245.165 77.935 244.938 78.0865 244.761 78.3012C244.572 78.5158 244.484 78.7936 244.484 79.1472C244.484 79.5639 244.61 79.8543 244.875 80.0311C245.114 80.2205 245.417 80.3089 245.782 80.3089C246.224 80.3089 246.576 80.2205 246.841 80.0311C247.093 79.8543 247.282 79.6397 247.396 79.3997C247.509 79.1346 247.572 78.882 247.598 78.6295C247.61 78.3643 247.623 78.1496 247.623 77.9855V77.594Z" fill="white"/>
<path d="M253.107 75.0812H251.695V79.2483C251.695 79.5514 251.758 79.7913 251.896 79.9934C252.01 80.208 252.224 80.3091 252.527 80.3091C252.804 80.3091 253.044 80.2585 253.233 80.1575L253.283 80.8142C253.195 80.852 253.069 80.8773 252.905 80.9278C252.728 80.9657 252.539 80.9909 252.338 80.9909C252.01 80.9909 251.745 80.9278 251.543 80.8142C251.354 80.6879 251.216 80.5364 251.127 80.3469C251.039 80.1449 250.989 79.9176 250.964 79.665C250.938 79.4125 250.926 79.1347 250.926 78.8443V75.0812H249.703V74.3994H250.926V72.8462L251.695 72.5684V74.3994H253.107V75.0812Z" fill="white"/>
<path d="M254.619 74.3994H255.388V80.8395H254.619V74.3994ZM255.388 72.682H254.619V71.6213H255.388V72.682Z" fill="white"/>
<path d="M256.955 77.6194C256.955 76.6975 257.195 75.9146 257.661 75.2706C258.127 74.6014 258.859 74.2604 259.855 74.2478C260.863 74.2604 261.594 74.6014 262.073 75.2706C262.527 75.9146 262.754 76.6975 262.754 77.6194C262.754 78.5159 262.527 79.2988 262.073 79.9555C261.594 80.6247 260.863 80.9657 259.855 80.9909C258.859 80.9657 258.127 80.6247 257.661 79.9555C257.195 79.2988 256.955 78.5159 256.955 77.6194ZM257.787 77.6194C257.787 78.3896 257.964 79.021 258.329 79.5135C258.67 80.0312 259.174 80.2964 259.855 80.309C260.535 80.2964 261.052 80.0312 261.405 79.5135C261.758 79.021 261.922 78.3896 261.922 77.6194C261.922 76.8491 261.758 76.2051 261.405 75.7C261.052 75.1949 260.535 74.9423 259.855 74.9297C259.174 74.9423 258.67 75.1949 258.329 75.7C257.964 76.2051 257.787 76.8491 257.787 77.6194Z" fill="white"/>
<path d="M264.432 75.9146C264.432 75.4222 264.419 74.9171 264.381 74.3993H265.125V75.5484H265.15C265.226 75.3969 265.314 75.2454 265.415 75.0938C265.503 74.9423 265.629 74.8034 265.781 74.6771C265.932 74.5382 266.121 74.4372 266.348 74.3614C266.575 74.2857 266.852 74.2478 267.167 74.2478C267.936 74.2604 268.491 74.4877 268.819 74.9549C269.134 75.4095 269.298 76.003 269.298 76.7228V80.8394H268.529V76.9248C268.529 76.3061 268.415 75.8262 268.201 75.46C267.962 75.1191 267.583 74.9423 267.041 74.9297C266.361 74.9423 265.882 75.1949 265.604 75.6873C265.453 75.9146 265.352 76.1546 265.302 76.4324C265.226 76.7102 265.201 76.988 265.201 77.2784V80.8394H264.432V75.9146Z" fill="white"/>
<path d="M1.10938 10.5785H2.08121V5.93849H5.61557V5.09245H2.08121V1.57969H5.78404V0.733643H1.10938V10.5785Z" fill="white"/>
<path d="M12.9937 3.38525H12.1067V7.36294C12.1067 8.56141 11.6002 9.98602 9.98082 9.98602C8.75572 9.98602 8.27668 9.11243 8.27668 7.75783V3.38525H7.38965V7.98398C7.38965 9.56358 8.06581 10.7483 9.83986 10.7483C11.332 10.7483 11.8672 9.94355 12.1629 9.29495H12.1915V10.5784H13.0499C12.9937 10.0009 12.9937 9.43615 12.9937 8.88628V3.38525Z" fill="white"/>
<path d="M15.2192 10.5784H16.1063V6.60074C16.1063 5.40227 16.6128 3.97765 18.2322 3.97765C19.4573 3.97765 19.9363 4.8524 19.9363 6.20584V10.5784H20.8233V5.98084C20.8233 4.40125 20.1472 3.21655 18.3731 3.21655C16.881 3.21655 16.3458 4.02012 16.0501 4.66872H16.0215V3.3853H15.1631C15.2192 3.96387 15.2192 4.52752 15.2192 5.0774V10.5784Z" fill="white"/>
<path d="M28.7366 0H27.8496V4.59873H27.8221C27.6949 4.24516 26.9912 3.21658 25.5827 3.21658C23.4706 3.21658 22.626 4.79618 22.626 6.98189C22.626 9.11251 23.6116 10.7484 25.5827 10.7484C26.6107 10.7484 27.343 10.3535 27.8221 9.43623H27.8496V10.5785H28.7366V0ZM23.5967 6.98189C23.5967 5.58597 24.0333 3.97768 25.7237 3.97768C27.3006 3.97768 27.8496 5.66978 27.8496 6.98189C27.8496 8.29401 27.3006 9.9861 25.7237 9.9861C24.0333 9.9861 23.5967 8.37896 23.5967 6.98189Z" fill="white"/>
<path d="M35.6931 9.44998C35.2702 9.7186 34.327 9.98607 33.6795 9.98607C32.1301 9.98607 31.3141 8.7589 31.3141 7.23556H36.2283V6.78441C36.2283 4.8524 35.3974 3.21655 33.3701 3.21655C31.5536 3.21655 30.3423 4.78122 30.3423 6.98186C30.3423 9.14003 31.2293 10.7483 33.6096 10.7483C34.2709 10.7483 35.0731 10.6071 35.6931 10.3534V9.44998ZM31.3141 6.47446C31.3141 5.28977 32.1163 3.97765 33.4263 3.97765C34.7499 3.97765 35.2565 5.21859 35.2565 6.47446H31.3141Z" fill="white"/>
<path d="M43.6065 0H42.7195V4.59873H42.692C42.5647 4.24516 41.8611 3.21658 40.4526 3.21658C38.3405 3.21658 37.4958 4.79618 37.4958 6.98189C37.4958 9.11251 38.4814 10.7484 40.4526 10.7484C41.4806 10.7484 42.2129 10.3535 42.692 9.43623H42.7195V10.5785H43.6065V0ZM38.4677 6.98189C38.4677 5.58597 38.9032 3.97768 40.5936 3.97768C42.1705 3.97768 42.7195 5.66978 42.7195 6.98189C42.7195 8.29401 42.1705 9.9861 40.5936 9.9861C38.9032 9.9861 38.4677 8.37896 38.4677 6.98189Z" fill="white"/>
<path d="M49.5774 10.5785H50.4644V9.43623H50.4919C50.971 10.3535 51.7033 10.7484 52.7313 10.7484C54.7024 10.7484 55.688 9.11251 55.688 6.98189C55.688 4.79618 54.8434 3.21658 52.7313 3.21658C51.3228 3.21658 50.6191 4.24516 50.4919 4.59873H50.4644V0H49.5774V10.5785ZM54.7173 6.98189C54.7173 8.37896 54.2807 9.9861 52.5903 9.9861C51.0134 9.9861 50.4644 8.29401 50.4644 6.98189C50.4644 5.66978 50.971 3.97768 52.5903 3.97768C54.2807 3.97768 54.7173 5.58597 54.7173 6.98189Z" fill="white"/>
<path d="M57.477 3.38525H56.5051L59.0539 10.6633L58.8705 11.2981C58.5886 12.2291 58.3353 12.864 57.5755 12.864C57.2512 12.864 57.0827 12.8077 56.9131 12.7515L56.8295 13.5126C57.1251 13.5837 57.4621 13.6251 57.7864 13.6251C58.7857 13.6251 59.2934 12.6378 59.6315 11.6506L62.5035 3.38525H61.574L59.5043 9.3799H59.4905L57.477 3.38525Z" fill="white"/>
</g>
<defs>
<clipPath id="clip0_1_828">
<rect width="291" height="81" fill="white"/>
</clipPath>
</defs>
</svg>
