<svg width="32" height="32" viewBox="0 0 32 32" fill="none" xmlns="http://www.w3.org/2000/svg">
<path d="M31.4686 11.9224L31.4236 11.81L27.068 0.700685C26.9793 0.482947 26.8224 0.298239 26.6197 0.173064C26.4169 0.0500146 26.1803 -0.00924977 25.942 0.00327239C25.7036 0.0157946 25.4749 0.0995003 25.2867 0.243088C25.1006 0.390797 24.9657 0.590949 24.9001 0.816305L21.9592 9.61H10.0504L7.10942 0.816305C7.04563 0.589722 6.91036 0.388567 6.72284 0.241459C6.53469 0.0978715 6.30598 0.0141657 6.0676 0.00164358C5.82922 -0.0108786 5.59265 0.0483858 5.38983 0.171435C5.18759 0.297116 5.03082 0.481662 4.94161 0.699056L0.577655 11.8035L0.534332 11.9159C-0.0926796 13.517 -0.170074 15.2739 0.313818 16.9218C0.79771 18.5696 1.81665 20.0191 3.21702 21.0516L3.23202 21.063L3.27201 21.0906L9.90708 25.9467L13.1896 28.3748L15.1891 29.8501C15.423 30.0237 15.7086 30.1176 16.0023 30.1176C16.2959 30.1176 16.5815 30.0237 16.8154 29.8501L18.8149 28.3748L22.0975 25.9467L28.7725 21.0613L28.7892 21.0483C30.1864 20.0156 31.203 18.5677 31.6862 16.9221C32.1693 15.2764 32.093 13.522 31.4686 11.9224Z" fill="white"/>
</svg>
