<svg width="31" height="43" viewBox="0 0 31 43" fill="none" xmlns="http://www.w3.org/2000/svg">
  <g clip-path="url(#clip0_1621_6724)">
    <circle cx="15.5" cy="15.5" r="5.5" fill="white"/>
    <path d="M15.4978 42C15.9477 42.0017 16.3903 41.8871 16.7828 41.6673C17.1752 41.4477 17.5042 41.1304 17.7379 40.7462C19.4889 37.8954 22.4085 32.9909 24.8937 28.0739C26.1362 25.6156 27.2787 23.1373 28.1129 20.9007C28.9368 18.6917 29.5 16.6159 29.5 15V14.9989C29.4958 11.2874 28.0196 7.72918 25.3952 5.10478C22.7708 2.48039 19.2126 1.00417 15.5011 0.999998L15.4989 1C11.7874 1.00417 8.22918 2.48039 5.60478 5.10478C2.98038 7.72918 1.50417 11.2874 1.5 14.9989V15C1.5 16.6144 2.06328 18.6893 2.88714 20.8978C3.7213 23.134 4.86384 25.6123 6.1063 28.071C8.59208 32.9899 11.5124 37.8976 13.2633 40.7497L13.2638 40.7505C13.4988 41.1325 13.8277 41.4479 14.2193 41.6666C14.61 41.8849 15.0502 41.9997 15.4978 42ZM15.4978 42C15.497 42 15.4961 42 15.4952 42L15.5 41L15.5003 42C15.4995 42 15.4986 42 15.4978 42ZM15.5 19.6875C14.5729 19.6875 13.6666 19.4126 12.8958 18.8975C12.1249 18.3824 11.5241 17.6504 11.1693 16.7938C10.8145 15.9373 10.7217 14.9948 10.9026 14.0855C11.0834 13.1762 11.5299 12.341 12.1854 11.6854C12.841 11.0299 13.6762 10.5834 14.5855 10.4026C15.4948 10.2217 16.4373 10.3145 17.2938 10.6693C18.1504 11.0241 18.8824 11.6249 19.3975 12.3958C19.9126 13.1666 20.1875 14.0729 20.1875 15C20.1875 16.2432 19.6936 17.4355 18.8146 18.3146C17.9355 19.1936 16.7432 19.6875 15.5 19.6875Z" fill="#22C0D2" stroke="white" stroke-width="2"/>
  </g>
  <defs>
    <clipPath id="clip0_1621_6724">
      <rect width="31" height="43" fill="white"/>
    </clipPath>
  </defs>
</svg>