<svg width="32" height="32" viewBox="0 0 32 32" fill="none" xmlns="http://www.w3.org/2000/svg">
<path d="M31.0932 8.58666C31.1881 8.5078 31.2592 8.40416 31.2987 8.28728C31.3382 8.17039 31.3444 8.04485 31.3168 7.92461C31.2892 7.80438 31.2287 7.69417 31.1421 7.60626C31.0556 7.51835 30.9463 7.45618 30.8266 7.42666L29.7732 7.16C29.6774 7.13602 29.5882 7.09107 29.5119 7.02839C29.4356 6.96571 29.3742 6.88687 29.3321 6.79757C29.29 6.70826 29.2683 6.61072 29.2685 6.51199C29.2687 6.41326 29.2908 6.3158 29.3332 6.22666L29.9199 5.04C29.9753 4.92501 29.9966 4.79652 29.9811 4.66981C29.9656 4.54311 29.9141 4.4235 29.8327 4.32521C29.7512 4.22691 29.6433 4.15407 29.5217 4.11533C29.4 4.07659 29.2698 4.07358 29.1466 4.10666L26.4799 4.85333C26.3805 4.88231 26.2758 4.88776 26.174 4.86924C26.0721 4.85073 25.976 4.80876 25.8932 4.74666C24.7392 3.88118 23.3357 3.41333 21.8932 3.41333C20.1251 3.41333 18.4294 4.11571 17.1792 5.36595C15.9289 6.61619 15.2266 8.31189 15.2266 10.08V10.56C15.2271 10.6419 15.1976 10.7211 15.1435 10.7826C15.0894 10.8441 15.0145 10.8835 14.9332 10.8933C11.1866 11.3333 7.59989 9.42666 3.73322 4.97333C3.64923 4.88069 3.54131 4.81301 3.42134 4.77772C3.30138 4.74244 3.174 4.74092 3.05322 4.77333C2.94442 4.82334 2.8511 4.90174 2.78306 5.00028C2.71502 5.09882 2.67477 5.21386 2.66656 5.33333C2.1325 7.52712 2.34843 9.83656 3.27989 11.8933C3.30745 11.9479 3.31948 12.009 3.31467 12.0699C3.30986 12.1308 3.28838 12.1893 3.2526 12.2388C3.21681 12.2884 3.16809 12.3271 3.11177 12.3508C3.05544 12.3746 2.99368 12.3823 2.93322 12.3733L1.43989 12.08C1.33384 12.0629 1.22524 12.0718 1.12333 12.1057C1.02143 12.1397 0.929237 12.1978 0.854605 12.275C0.779973 12.3523 0.725113 12.4464 0.694693 12.5494C0.664273 12.6524 0.659195 12.7613 0.679892 12.8667C0.79501 13.8899 1.13879 14.8742 1.68578 15.7466C2.23278 16.619 2.96898 17.3573 3.83989 17.9067C3.89625 17.934 3.94378 17.9766 3.97703 18.0296C4.01029 18.0827 4.02793 18.144 4.02793 18.2067C4.02793 18.2693 4.01029 18.3306 3.97703 18.3837C3.94378 18.4368 3.89625 18.4794 3.83989 18.5067L3.13322 18.7867C3.0474 18.8211 2.96968 18.8729 2.90499 18.939C2.8403 19.0051 2.79005 19.0839 2.75745 19.1704C2.72485 19.2569 2.7106 19.3493 2.71561 19.4416C2.72062 19.5339 2.74478 19.6242 2.78656 19.7067C3.17735 20.5618 3.7697 21.3093 4.51282 21.8853C5.25594 22.4612 6.12766 22.8483 7.05322 23.0133C7.11757 23.0367 7.17317 23.0793 7.21246 23.1353C7.25176 23.1914 7.27283 23.2582 7.27283 23.3267C7.27283 23.3951 7.25176 23.4619 7.21246 23.518C7.17317 23.574 7.11757 23.6166 7.05322 23.64C5.24038 24.3898 3.29491 24.7662 1.33322 24.7467C1.15641 24.7113 0.972797 24.7476 0.822768 24.8476C0.672739 24.9477 0.568587 25.1032 0.533225 25.28C0.497863 25.4568 0.534187 25.6404 0.634206 25.7905C0.734225 25.9405 0.889747 26.0446 1.06656 26.08C4.46328 27.691 8.16147 28.5678 11.9199 28.6533C15.2258 28.7038 18.4729 27.776 21.2532 25.9867C23.5402 24.4601 25.4139 22.3913 26.7074 19.9649C28.0009 17.5384 28.6739 14.8297 28.6666 12.08V10.92C28.6674 10.8232 28.6893 10.7277 28.7307 10.6402C28.7722 10.5527 28.8322 10.4753 28.9066 10.4133L31.0932 8.58666Z" fill="white"/>
</svg>
